<mxfile host="app.diagrams.net" modified="2023-06-15T17:59:14.834Z" agent="Mozilla/5.0 (Windows NT 10.0; Win64; x64) AppleWebKit/537.36 (KHTML, like Gecko) Chrome/114.0.0.0 Safari/537.36" version="21.3.8" etag="tY9A4veqKVFSw--n191Z" type="github">
  <diagram name="Page-1" id="rwP7ydQILQx_W-imTyQ0">
    <mxGraphModel>
      <root>
        <mxCell id="0" />
        <mxCell id="1" parent="0" />
      </root>
    </mxGraphModel>
  </diagram>
</mxfile>
